# xmcd
#
# Track frame offsets:
#	150
#	19045
#	31855
#	47322
#	66112
#	83287
#	101110
#	120160
#	136172
#	152497
#	168875
#	186072
#	203900
#	219287
#
# Disc length: 3137 seconds
#
# Revision: 3
# Processed by: cddbd v1.5.2PL0 Copyright (c) Steve Scherf et al.
# Submitted via: audiograbber 1.83.01
#
DISCID=9d0c3f0e
DTITLE=George Fox - George Fox Greatest Hits 1987-1997
DYEAR=1997
DGENRE=Country
TTITLE0=No Tresspassing
TTITLE1=Lime Rickey
TTITLE2=Spice Of Life
TTITLE3=Here's Hoping (There'll Always Be A Cowboy)
TTITLE4=The Night The Barn Burned Down
TTITLE5=I Give You My Word
TTITLE6=Mustang Heart
TTITLE7=Clearly Canadian
TTITLE8=Goldmine
TTITLE9=What's Holding Me
TTITLE10=Wear And Tear On My Heart
TTITLE11=Breakfast Alone
TTITLE12=Angelina
TTITLE13=First Comes Love
EXTD=
EXTT0=
EXTT1=
EXTT2=
EXTT3=
EXTT4=
EXTT5=
EXTT6=
EXTT7=
EXTT8=
EXTT9=
EXTT10=
EXTT11=
EXTT12=
EXTT13=
PLAYORDER=
